<svg xmlns="http://www.w3.org/2000/svg" viewBox="0 0 519 67.104"><path d="M0 30.002C0 16.102 3.6 6.1 11.9 0h55.704c4.8 3.7 7.8 9.1 8.4 16.602H50.003c-.9-4.501-4.4-6.602-10.9-6.602-9.701 0-14.501 5.001-14.501 13.401h.5c4-2.6 11.9-3.9 19.9-3.9 19.102 0 31.303 7.001 31.303 22.302 0 17.1-13.801 25.2-37.603 25.2C10.601 67.004 0 56.304 0 30.003Zm37.802 20c7.7 0 12.2-2.1 12.2-6.9s-4.4-6.6-12.2-6.6c-7.5 0-11.8 1.8-11.8 6.6s4.4 6.9 11.8 6.9Zm67.698-23.2 13.7-5.1c5.001-1.901 7.701-3.201 7.701-6.201 0-3.1-2.6-4.9-8.6-4.9-7.801 0-10.5 2.1-11.1 6H80.697c.6-6.7 2.8-12.4 8.301-16.601h58.104c4.3 3.7 6.3 8.701 6.3 15.001 0 13.8-10.1 18.1-20.801 21.401L115 41.902c-3.6 1.1-5.6 2.801-6.2 4.7h44.303v18.402H79.298v-2.3c0-19.5 9.301-29.602 26.202-35.902ZM159.398 0H199.4l7.401 28.701h.5L214.801 0h41.203v65.004h-25.801V19.9h-.5L216 65.004h-18L184 19.7h-.4v45.303h-24.202V0Zm103.6 0H288.8v65.004h-25.802V0Zm32.8 0h25.801v44.803h40.902v20.2h-66.704V0Zm72.098 0H435v12.6h-41.302v9.2H432.9v16.003h-39.202v9.7H435.5v17.5h-67.604V0Zm71.1 41.502h27.002c.3 5.4 4.3 7.602 13.9 7.602 7.701 0 11.8-1 11.8-4.501 0-3.101-3.4-4.3-10.2-5.2l-16-2.2c-14.902-2-24.802-6.3-24.802-22.101 0-6.702 1.9-11.602 5.3-15.102H510.2c3.6 3.6 5.8 8.5 6.3 15.102H489.9c-.3-3.9-4.2-6.001-12.701-6.001-6.8 0-10.301.8-10.301 3.8 0 2.6 2.8 3.7 8 4.4l18.002 2.5C508.6 22 519 26.4 519 42.5c0 20.903-16.7 24.602-40.302 24.602-22.001 0-38.802-3.6-39.702-25.601Z"/></svg>