<svg xmlns="http://www.w3.org/2000/svg" viewBox="0 0 658.102 67.104">
    <path d="M0 0h67.304v15.1H25.802v11.702h39.202v17.4H25.802v20.802H0V0Zm88.001 0h38.502l25.702 65.004h-27.302l-3.4-9.501H92.602l-3.4 9.5H62.3L88 0Zm27.402 38.302-8.2-22.801h-.5l-8.1 22.8h16.8ZM154.298 0H187.9l20.502 31.002h.5V0h24.202v65.004H204L179 27.102h-.5v37.902h-24.202V0Zm106.9 15.1h-23V0h71.804v15.1H287v49.904h-25.802V15.1ZM322.9 0h38.502l25.702 65.004h-27.302l-3.4-9.501H327.5l-3.4 9.5h-26.902L322.9 0ZM350.3 38.302l-8.2-22.801h-.5l-8.1 22.8h16.8Zm33.897 3.2H411.2c.3 5.4 4.3 7.6 13.9 7.6 7.701 0 11.8-1 11.8-4.5 0-3.1-3.4-4.3-10.2-5.2l-16-2.2c-14.902-2-24.802-6.3-24.802-22.101 0-6.7 1.9-11.601 5.3-15.101h64.204c3.6 3.6 5.8 8.5 6.3 15.1h-26.601c-.3-3.9-4.2-6-12.701-6-6.8 0-10.3.8-10.3 3.8 0 2.601 2.8 3.7 8 4.4l18.001 2.5c15.701 2.201 26.102 6.601 26.102 22.702 0 20.901-16.702 24.602-40.303 24.602-22.001 0-38.802-3.6-39.702-25.602ZM487.2 15.101h-23.002V0h71.804v15.1h-23v49.904H487.2V15.1ZM541.098 0H566.9v65.004h-25.802V0Zm31.5 29.302c0-13.301 4-23.002 12-29.302h62.604c5.5 4.3 8.9 10.3 10.1 17.8.2 1.401.3 3 .4 4.601H629.5c-.7-5.7-5-9.901-13.7-9.901-9.401 0-15.601 4.8-15.601 16.802 0 12 6.2 16.8 15.6 16.8 8.701 0 13.201-4.1 14.102-11.6h28.201c0 2.7-.5 6.1-1.1 8.7-4.1 17.001-19.4 23.902-41.203 23.902-28.7 0-43.202-12.601-43.202-37.802Z"/>
</svg>