<svg xmlns="http://www.w3.org/2000/svg" viewBox="0 0 829.098 67.104"><path d="M0 0h40.002l7.401 28.702h.5L55.403 0h41.203v65.004H70.805V19.9h-.5L56.604 65.004H38.603L24.602 19.7h-.4v45.303H0V0Zm103.6 0h67.104v12.6h-41.303v9.202h39.203v16h-39.203v9.7h41.803v17.502H103.6V0Zm73.599 0h67.104v12.6H203v9.202h39.203v16H203v9.7h41.803v17.502H177.2V0Zm94.7 15.102h-23.001V0h71.805v15.102h-23.001v49.902H271.9V15.102ZM325.8 0H365.8l7.4 28.702h.5L381.202 0h41.204v65.004h-25.802V19.9h-.5l-13.701 45.103H364.4L350.4 19.7h-.4v45.303h-24.202V0Zm124.4 0h38.503l25.702 65.004h-27.302l-3.4-9.5h-28.903l-3.4 9.5h-26.901L450.2 0Zm27.402 38.303-8.2-22.802h-.5l-8.1 22.802h16.8ZM516.497 0h71.705c3.8 3.8 5.6 9.3 5.6 17.102 0 12.6-4.1 18.3-13.101 21.7v1l14.7 25.202H566.5l-11.601-21.901h-12.6v21.9h-25.802V0Zm41.802 26.802c5.6 0 7.801-2 7.801-6.6 0-4.5-2.1-6.601-7.8-6.601h-16.002v13.2H558.3Zm39.297 2.5c0-13.301 4-23.001 12.001-29.302h62.604c5.5 4.3 8.9 10.3 10.1 17.8.2 1.401.3 3.002.4 4.601H654.5c-.7-5.7-5-9.9-13.702-9.9-9.4 0-15.6 4.8-15.6 16.8s6.2 16.802 15.6 16.802c8.702 0 13.202-4.1 14.102-11.601H683.1c0 2.7-.5 6.1-1.1 8.701-4.1 17.001-19.4 23.901-41.203 23.901-28.7 0-43.202-12.6-43.202-37.802ZM688.794 0H755.9v12.6h-41.303v9.202h39.202v16h-39.202v9.7H756.4v17.502h-67.605V0Zm73.6 0h25.802v44.803h40.902v20.2h-66.704V0Z"/></svg>