<svg xmlns="http://www.w3.org/2000/svg" viewBox="0 0 1070.293 67.104"><path d="M0 0h40.002l7.401 28.701h.5L55.403 0h41.203v65.004H70.805V19.9h-.5L56.604 65.004H38.603L24.602 19.7h-.4v45.303H0V0Zm101.3 29.302c0-13.201 4-23.002 12-29.302h63.004c8 6.3 12.001 16.1 12.001 29.302 0 25-14.3 37.802-43.503 37.802S101.3 54.303 101.3 29.302Zm43.502 16.8c9.7 0 15.901-5 15.901-16.8s-6.2-16.802-15.9-16.802S128.9 17.501 128.9 29.302s6.2 16.8 15.901 16.8ZM192.998 0h71.706c3.8 3.8 5.6 9.3 5.6 17.1 0 12.601-4.1 18.302-13.102 21.702v1l14.702 25.202H243l-11.6-21.901H218.8v21.9h-25.802V0Zm41.803 26.802c5.6 0 7.8-2.001 7.8-6.6 0-4.502-2.1-6.601-7.8-6.601H218.8v13.2h16ZM296.999 15.1h-23.002V0H345.8v15.1h-23v49.904h-25.802V15.1ZM350.897 0h25.802v65.004h-25.802V0Zm32.799 0H450.8v12.6h-41.302v9.2H448.7v16.002h-39.202v9.7H451.3v17.502h-67.604V0Zm73.598 0H529c3.8 3.8 5.6 9.3 5.6 17.1 0 12.601-4.1 18.302-13.1 21.702v1l14.7 25.202h-28.902l-11.6-21.901h-12.6v21.9h-25.803V0Zm41.803 26.802c5.6 0 7.8-2.001 7.8-6.6 0-4.502-2.1-6.601-7.8-6.601h-16v13.2h16ZM540.694 0h71.404c2.4 2.8 3.6 6.5 3.6 11.1 0 8.2-3.4 12.601-9.6 15.002v.8c8.1 2.8 12.2 7.7 12.2 17.7 0 13.4-7.1 20.402-25.1 20.402h-52.504V0Zm42.503 22.001c4.5 0 5.9-1.8 5.9-5 0-3.3-1.5-5.2-5.9-5.2h-16.701V22h16.7Zm1.1 25.901c4.8 0 6.4-1.8 6.4-5.5 0-3.6-1.5-5.6-6.4-5.6h-17.801v11.1h17.8ZM623.992 0h71.705c3.8 3.8 5.6 9.3 5.6 17.1 0 12.601-4.1 18.302-13.101 21.702v1l14.7 25.202h-28.901l-11.601-21.901h-12.6v21.9h-25.802V0Zm41.802 26.802c5.601 0 7.801-2.001 7.801-6.6 0-4.502-2.1-6.601-7.8-6.601h-16.002v13.2h16.001ZM707.392 0h25.802v65.004h-25.802V0Zm31.5 29.302c0-13.402 4.1-23.102 12.2-29.302h63.503c5.6 4.5 9.001 10.9 9.801 19.201h-28.201c-1.1-4-4.6-7.3-13.301-7.3-11.201 0-16.401 5.5-16.401 17.4 0 13.201 5.3 18.002 16 18.002 8.101 0 13.101-2.2 15.502-6.2h-13.501V24.9h40.102v40.103h-16.6v-8.201c-6.101 6.9-12.801 10.3-28.302 10.3-25.903 0-40.803-12.4-40.803-37.801ZM852.391 0h38.502l25.702 65.004h-27.302l-3.4-9.501h-28.902l-3.4 9.5H826.69L852.392 0Zm27.401 38.302-8.2-22.801h-.5l-8.1 22.8h16.8ZM918.69 0h66.805c7.6 5.4 11.5 14.7 11.5 29.302 0 26.901-13.2 35.702-38.603 35.702H918.69V0Zm33.502 45.003c12.3 0 17.201-3.701 17.201-15.701 0-12.001-4.9-15.701-17.201-15.701h-7.7v31.402h7.7ZM1002.689 0h67.104v12.6h-41.302v9.2h39.202v16.002h-39.202v9.7h41.802v17.502h-67.604V0Z"/></svg>