<svg xmlns="http://www.w3.org/2000/svg" viewBox="0 0 833.198 67.104"><path d="M0 29.302C0 16.1 4 6.3 12 0h63.004c8 6.3 12.001 16.1 12.001 29.302 0 25.002-14.3 37.802-43.503 37.802S0 54.304 0 29.302Zm43.502 16.8c9.701 0 15.901-5 15.901-16.8s-6.2-16.801-15.9-16.801-15.901 5-15.901 16.8 6.2 16.802 15.9 16.802ZM92.698 0H126.3l20.502 31.002h.5V0h24.201v65.004h-29.102L117.4 27.102h-.5v37.902H92.698V0Zm85.8 0h25.8v44.803h40.903v20.2h-66.704V0Zm78.1 41.503L230.598 0h28.101L269.7 20.1 280.6 0h27.802L282.4 41.503v23.5h-25.801v-23.5ZM311.397 0h25.802v19.1h25.601V0h25.802v65.004H362.8V38.702h-25.601v26.302h-25.802V0Zm84.2 35.902V0h25.801v34.502c0 8.3 4.4 11.6 12.501 11.6s12.5-3.3 12.5-11.6V0H472.2v35.902c0 23.702-13.6 31.102-38.302 31.102s-38.303-7.4-38.303-31.102ZM479.195 0h40.003l7.4 28.702h.5L534.6 0h41.203v65.004H550V19.9h-.5l-13.7 45.103h-18.002l-14-45.303h-.4v45.303h-24.202V0Zm124.401 0H642.1l25.702 65.004H640.5l-3.4-9.501h-28.903l-3.4 9.5h-26.902L603.597 0ZM631 38.302l-8.2-22.801h-.5l-8.101 22.8h16.8ZM669.894 0h33.603l20.5 31.002h.5V0H748.7v65.004h-29.102l-25-37.902h-.5v37.902h-24.203V0Zm83.299 41.503h27.002c.3 5.4 4.3 7.6 13.9 7.6 7.701 0 11.801-1 11.801-4.5 0-3.1-3.4-4.301-10.2-5.2l-16.001-2.2c-14.902-2-24.802-6.302-24.802-22.102 0-6.7 1.9-11.601 5.3-15.101h64.204c3.6 3.6 5.8 8.501 6.3 15.1h-26.6c-.3-3.9-4.201-6-12.702-6-6.8 0-10.3.8-10.3 3.801 0 2.6 2.8 3.7 8 4.4l18.001 2.5c15.701 2.2 26.102 6.6 26.102 22.702 0 20.9-16.701 24.601-40.303 24.601-22.001 0-38.802-3.6-39.702-25.601Z"/></svg>