<svg xmlns="http://www.w3.org/2000/svg" viewBox="0 0 394.203 67.104"><path d="M23.001 15.101H0V0h71.804v15.101h-23v49.903H23V15.1Zm50.6 14.2c0-13.2 4-23 12-29.301h63.003c8.001 6.3 12.001 16.101 12.001 29.302 0 25.001-14.3 37.802-43.502 37.802S73.6 54.304 73.6 29.302Zm43.502 16.802c9.7 0 15.9-5 15.9-16.801s-6.2-16.802-15.9-16.802-15.901 5.001-15.901 16.802 6.2 16.8 15.9 16.8ZM166.298 0h66.805c7.6 5.4 11.5 14.7 11.5 29.302 0 26.901-13.2 35.702-38.602 35.702h-39.703V0Zm33.503 45.003c12.3 0 17.2-3.7 17.2-15.701s-4.9-15.701-17.2-15.701h-7.7v31.402h7.7ZM266.6 0h38.502l25.702 65.004h-27.302l-3.4-9.5H271.2l-3.4 9.5h-26.902L266.601 0Zm27.401 38.302-8.2-22.801h-.5l-8.1 22.801h16.8Zm48.398 3.2L316.398 0H344.5l11.001 20.101L366.401 0h27.802l-26.002 41.502v23.502h-25.8V41.502Z"/></svg>