<?xml version="1.0" encoding="UTF-8"?><svg id="logo" xmlns="http://www.w3.org/2000/svg" viewBox="0 0 671.02299 149.44388"><path id="Who_Owns_The_Zebra" d="m0,0h26.20136l6.50029,36.30141h.60012L40.00177,0h27.70142l6.70049,36.30141h.59964L81.50361,0h26.10126l-15.90061,65.00288h-30.10143l-7.50033-42.10148h-.60012l-7.50033,42.10148H15.70089L0,0Zm111.00492,0h25.80095v19.10143h25.60123V0h25.80144v65.00288h-25.80144v-26.30097h-25.60123v26.30097h-25.80095V0Zm82.90358,29.3011c0-13.26621,4.00018-23.03325,12.00053-29.3011h63.00231c8.00035,6.26786,12.00053,16.03489,12.00053,29.3011,0,25.20131-14.50064,37.80246-43.50144,37.80246s-43.50193-12.60114-43.50193-37.80246Zm31.75141,12.70076c2.76575,2.7345,6.68291,4.10077,11.75052,4.10077,5.06565,0,8.98282-1.36627,11.75052-4.10077,2.76575-2.73254,4.15009-6.96613,4.15009-12.70076,0-5.73268-1.38434-9.96529-4.15009-12.69978-2.7677-2.73352-6.68487-4.10077-11.75052-4.10077-5.06761,0-8.98477,1.36725-11.75052,4.10077-2.7677,2.7345-4.15057,6.96711-4.15057,12.69978,0,5.73463,1.38287,9.96822,4.15057,12.70076Zm84.35091-12.70076c0-13.26621,4.00018-23.03325,12.00053-29.3011h63.00279c8.00035,6.26786,12.00053,16.03489,12.00053,29.3011,0,25.20131-14.50064,37.80246-43.50193,37.80246s-43.50193-12.60114-43.50193-37.80246Zm31.75141,12.70076c2.76575,2.7345,6.68291,4.10077,11.75052,4.10077,5.06565,0,8.98282-1.36627,11.75052-4.10077,2.76575-2.73254,4.1496-6.96613,4.1496-12.70076,0-5.73268-1.38385-9.96529-4.1496-12.69978-2.7677-2.73352-6.68487-4.10077-11.75052-4.10077-5.06761,0-8.98477,1.36725-11.75052,4.10077-2.7677,2.7345-4.15057,6.96711-4.15057,12.69978,0,5.73463,1.38287,9.96822,4.15057,12.70076ZM396.01365,0h26.20136l6.50029,36.30141h.59964l6.70049-36.30141h27.70142l6.70049,36.30141h.59964l6.50029-36.30141h26.10174l-15.9011,65.00288h-30.10094l-7.50033-42.10148h-.60061l-7.50033,42.10148h-30.30115L396.01365,0Zm111.00492,0h33.6011l20.50091,31.00137h.50002V0h24.20127v65.00288h-29.1009l-25.00111-37.90109h-.50002v37.90109h-24.20127V0Zm102.25356,65.15328c-5.56763-1.29986-10.05025-3.8156-13.45079-7.55014-3.40054-3.73356-5.23461-9.10099-5.50024-16.1013h27.0012c.13282,2.7345,1.28326,4.68478,3.45035,5.85085,2.16514,1.16704,5.64966,1.75008,10.45066,1.75008,4.06561,0,7.05012-.33302,8.94962-1.00004,1.90047-.66605,2.85071-1.83309,2.85071-3.50016,0-1.46589-.79984-2.58312-2.4005-3.35073-1.59968-.76566-4.20038-1.38287-7.80015-1.84969l-16.00071-2.20029c-5.46704-.73245-9.96724-1.83309-13.5006-3.29995-3.53434-1.46589-6.30008-3.70036-8.30017-6.70049-2.00009-3.00013-3.00013-7.03352-3.00013-12.10015,0-6.40067,1.7657-11.4341,5.30004-15.10126h64.20304c3.73259,3.73454,5.83327,8.76797,6.30008,15.10126h-26.60079c-.13477-2.00009-1.23443-3.50016-3.30093-4.5002s-5.19945-1.50007-9.39983-1.50007c-3.60075,0-6.21805.26661-7.85093.79984-1.63386.5342-2.44933,1.53425-2.44933,3.00013,0,1.26666.64944,2.2169,1.94931,2.84974,1.30084.63479,3.31655,1.15044,6.05105,1.54987l18.0008,2.50011c5.80006.80082,10.55027,1.96786,14.25063,3.50016,3.69938,1.53522,6.5999,3.83513,8.6996,6.9007,2.10068,3.06752,3.15053,7.16731,3.15053,12.30035,0,6.66729-1.65046,11.80033-4.95041,15.40107-3.29995,3.59977-7.83433,6.03445-13.60021,7.30013-5.76783,1.26568-13.01816,1.90047-21.75096,1.90047-8.26794,0-15.18524-.65042-20.75092-1.95028ZM30.06223,99.54225H7.06121v-15.10126h71.80397v15.10126h-23.00102v49.90163h-25.80193v-49.90163Zm52.90274-15.10126h25.80095v19.10143h25.60172v-19.10143h25.80095v65.00288h-25.80095v-26.30097h-25.60172v26.30097h-25.80095v-65.00288Zm84.20295,0h68.10263v12.60114h-42.30168v9.19963h40.20198v16.00071h-40.20198v9.70063h42.8017v17.50078h-68.60265v-65.00288Zm97.70257,44.80179l38.39507-29.70054h-36.69578v-15.10126h75.64175v14.80046l-37.74593,29.70151h37.64632v20.50091h-77.24143v-20.20109Zm83.34034-44.80179h68.10263v12.60114h-42.30168v9.19963h40.20198v16.00071h-40.20198v9.70063h42.8017v17.50078h-68.60265v-65.00288Zm74.60292,0h71.40356c2.39952,2.79993,3.59977,6.50029,3.59977,11.10108,0,4.00018-.79984,7.18391-2.4005,9.55023-1.59968,2.36729-4.00018,4.18476-7.19954,5.45044v.79984c4.1994,1.46686,7.28255,3.56754,9.25041,6.30008,1.96493,2.7345,2.94935,6.53447,2.94935,11.4009,0,6.86749-1.98446,11.98491-5.94948,15.35029-3.96795,3.36734-10.35104,5.05003-19.15124,5.05003h-52.50233v-65.00288Zm42.50188,22.00098c2.13291,0,3.65055-.41506,4.55001-1.25006.90043-.83304,1.35065-2.0831,1.35065-3.75017,0-1.7325-.45022-3.03236-1.35065-3.89959-.89945-.86625-2.4171-1.30084-4.55001-1.30084h-16.70094v10.20065h16.70094Zm1.09966,25.90154c2.33311,0,3.98358-.43264,4.95041-1.29986.96586-.86625,1.45026-2.26573,1.45026-4.20038,0-1.86629-.4844-3.26577-1.45026-4.20038-.96684-.93266-2.6173-1.40045-4.95041-1.40045h-17.80059v11.10108h17.80059Zm39.20096-47.90251h71.70337c1.86532,1.86727,3.26577,4.20038,4.20038,7.00031.93266,2.79993,1.39948,6.16727,1.39948,10.10103,0,4.1994-.46682,7.68393-1.39948,10.44968-.93461,2.7677-2.35069,5.05101-4.25019,6.85089-1.90047,1.79988-4.38496,3.26675-7.45053,4.39961v1.00004l14.70085,25.20131h-28.90167l-11.60012-21.90039h-12.60114v21.90039h-25.80095v-65.00288Zm41.80166,26.80099c2.79993,0,4.80002-.51565,6.00027-1.54987,1.20025-1.03227,1.79988-2.71594,1.79988-5.05003,0-2.26573-.59964-3.93279-1.79988-5.00022-1.20025-1.06548-3.20034-1.59968-6.00027-1.59968h-16.00071v13.1998h16.00071Zm59.40205-26.80099h38.50171l25.70134,65.00288h-27.30102l-3.40054-9.50042h-28.9007l-3.40054,9.50042h-26.90158l25.70134-65.00288Zm27.40161,38.3015l-8.20056-22.80082h-.50002l-8.09997,22.80082h16.80055Z"/></svg>