<svg xmlns="http://www.w3.org/2000/svg" viewBox="0 0 1362.426 67.101"><path d="M-.08-.004h26.2l6.501 36.302h.6l6.7-36.302h27.702l6.701 36.302h.6l6.5-36.302h26.102L91.625 65H61.523l-7.5-42.102h-.6L45.921 65H15.62L-.08-.004Zm111.006 0h25.801v19.102h25.602V-.004h25.802V65h-25.802V38.699h-25.602v26.3h-25.801V-.003Zm82.905 29.302c0-13.267 4-23.034 12-29.302h63.004c8 6.268 12 16.035 12 29.302 0 25.201-14.5 37.803-43.502 37.803s-43.502-12.602-43.502-37.803Zm31.751 12.7c2.766 2.735 6.683 4.101 11.751 4.101 5.066 0 8.983-1.366 11.75-4.1 2.767-2.733 4.151-6.967 4.151-12.701 0-5.733-1.384-9.966-4.15-12.7-2.768-2.734-6.685-4.101-11.75-4.101-5.069 0-8.986 1.367-11.752 4.1-2.767 2.735-4.15 6.968-4.15 12.7 0 5.735 1.383 9.969 4.15 12.702Zm84.353-12.7c0-13.267 4-23.034 12-29.302h63.004c8 6.268 12 16.035 12 29.302 0 25.201-14.5 37.803-43.502 37.803s-43.502-12.602-43.502-37.803Zm31.751 12.7c2.766 2.735 6.684 4.101 11.751 4.101 5.066 0 8.983-1.366 11.75-4.1 2.767-2.733 4.15-6.967 4.15-12.701 0-5.733-1.383-9.966-4.15-12.7-2.767-2.734-6.684-4.101-11.75-4.101-5.067 0-8.985 1.367-11.75 4.1-2.768 2.735-4.151 6.968-4.151 12.7 0 5.735 1.383 9.969 4.15 12.702ZM395.94-.003h26.202l6.5 36.302h.6l6.7-36.302h27.702l6.7 36.302h.6l6.5-36.302h26.103L487.644 65h-30.101l-7.5-42.102h-.601L441.942 65H411.64L395.939-.004Zm111.006 0h33.602l20.501 31.002h.5V-.004h24.202V65h-29.102l-25.001-37.902h-.5V65h-24.202V-.004ZM609.2 65.15c-5.567-1.3-10.05-3.815-13.45-7.55-3.401-3.734-5.235-9.101-5.5-16.102h27c.134 2.735 1.284 4.685 3.451 5.851 2.165 1.167 5.65 1.75 10.45 1.75 4.067 0 7.051-.333 8.95-1 1.901-.666 2.851-1.833 2.851-3.5 0-1.466-.8-2.583-2.4-3.35-1.6-.766-4.2-1.383-7.8-1.85l-16.001-2.2c-5.467-.733-9.968-1.834-13.501-3.3-3.534-1.466-6.3-3.701-8.3-6.701s-3-7.034-3-12.1c0-6.401 1.765-11.435 5.3-15.102h64.204c3.732 3.735 5.833 8.768 6.3 15.102h-26.601c-.135-2-1.235-3.5-3.301-4.5-2.067-1-5.2-1.5-9.4-1.5-3.601 0-6.219.266-7.851.799-1.634.534-2.45 1.534-2.45 3 0 1.267.65 2.217 1.95 2.85 1.3.635 3.316 1.15 6.05 1.55l18.002 2.5c5.8.8 10.55 1.968 14.25 3.5 3.7 1.535 6.6 3.835 8.7 6.901 2.101 3.068 3.15 7.167 3.15 12.3 0 6.668-1.65 11.801-4.95 15.402-3.3 3.6-7.834 6.034-13.6 7.3-5.768 1.266-13.018 1.9-21.751 1.9-8.268 0-15.186-.65-20.752-1.95Zm112.255-50.052h-23.001V-.004h71.805v15.101h-23.002V65h-25.802V15.097ZM774.36-.004h25.801v19.102h25.602V-.004h25.801V65h-25.8V38.699H800.16v26.3h-25.801V-.003Zm84.204 0h68.104v12.601h-42.303v9.2h40.203v16.001h-40.203v9.7h42.803V65h-68.604V-.004Zm97.704 44.802 38.396-29.7h-36.697V-.004h75.643v14.8L995.863 44.5h37.647v20.5h-77.243V44.8Zm83.341-44.802h68.104v12.601h-42.302v9.2h40.202v16.001h-40.202v9.7h42.802V65h-68.603V-.004Zm74.605 0h71.404c2.4 2.8 3.6 6.5 3.6 11.101 0 4-.8 7.184-2.4 9.55-1.6 2.368-4 4.185-7.2 5.451v.8c4.2 1.467 7.282 3.568 9.25 6.3 1.965 2.735 2.95 6.535 2.95 11.401 0 6.868-1.985 11.985-5.95 15.35-3.968 3.368-10.351 5.05-19.151 5.05h-52.503V-.003Zm42.502 22.001c2.133 0 3.65-.415 4.55-1.25.9-.833 1.35-2.083 1.35-3.75 0-1.732-.45-3.032-1.35-3.9-.9-.866-2.417-1.3-4.55-1.3h-16.701v10.2h16.701Zm1.1 25.902c2.333 0 3.983-.432 4.95-1.3.966-.866 1.45-2.265 1.45-4.2 0-1.866-.484-3.266-1.45-4.2-.967-.933-2.617-1.401-4.95-1.401h-17.801v11.101h17.8Zm39.201-47.903h71.705c1.865 1.867 3.266 4.2 4.2 7 .933 2.8 1.4 6.168 1.4 10.102 0 4.2-.467 7.684-1.4 10.45-.934 2.767-2.35 5.05-4.25 6.85-1.9 1.8-4.385 3.267-7.45 4.4v1L1275.92 65h-28.902l-11.6-21.9h-12.601V65h-25.802V-.004Zm41.803 26.801c2.8 0 4.8-.515 6-1.55 1.2-1.032 1.8-2.715 1.8-5.05 0-2.265-.6-3.932-1.8-5-1.2-1.065-3.2-1.6-6-1.6h-16.001v13.2h16Zm59.403-26.801h38.502L1362.426 65h-27.302l-3.4-9.5h-28.902l-3.4 9.5h-26.902l25.702-65.004Zm27.402 38.302-8.201-22.801h-.5l-8.1 22.801h16.8Z"/></svg>