<?xml version="1.0" standalone="no"?>
<!DOCTYPE svg PUBLIC "-//W3C//DTD SVG 20010904//EN"
 "http://www.w3.org/TR/2001/REC-SVG-20010904/DTD/svg10.dtd">
<svg version="1.0" xmlns="http://www.w3.org/2000/svg"
 width="1917.000000pt" height="1917.000000pt" viewBox="0 0 1917.000000 1917.000000"
 preserveAspectRatio="xMidYMid meet">
<metadata>
Created by potrace 1.14, written by Peter Selinger 2001-2017
</metadata>
<g transform="translate(0.000000,1917.000000) scale(0.100000,-0.100000)"
fill="#000000" stroke="none">
<path d="M8999 15386 c-2 -2 -56 -7 -119 -10 -131 -8 -166 -11 -340 -33 -186
-23 -237 -31 -430 -67 -45 -8 -214 -46 -250 -55 -195 -50 -283 -75 -348 -97
-42 -14 -86 -27 -97 -29 -12 -3 -99 -34 -195 -69 -639 -234 -1193 -547 -1720
-969 -78 -63 -110 -90 -249 -212 -120 -104 -445 -440 -547 -565 -16 -19 -31
-37 -34 -40 -13 -11 -131 -161 -186 -235 -32 -44 -63 -84 -67 -90 -16 -19
-197 -285 -197 -290 0 -2 -13 -23 -29 -47 -16 -24 -38 -59 -49 -78 -11 -19
-43 -75 -72 -125 -49 -83 -250 -476 -250 -488 0 -3 -13 -35 -30 -70 -17 -36
-30 -68 -30 -72 0 -3 -10 -27 -21 -53 -53 -116 -174 -465 -224 -647 -17 -63
-21 -76 -54 -215 -41 -166 -88 -417 -105 -555 -29 -231 -33 -266 -43 -415 -15
-208 -8 -774 11 -925 2 -16 7 -60 10 -96 4 -36 9 -76 11 -90 2 -13 7 -46 10
-74 3 -27 10 -75 15 -105 5 -30 12 -71 15 -90 6 -38 22 -122 29 -156 2 -12 7
-38 10 -59 4 -20 8 -41 11 -45 2 -3 7 -22 10 -41 8 -45 44 -197 54 -229 5 -14
14 -45 21 -70 7 -25 20 -67 28 -95 9 -27 17 -54 18 -60 18 -86 168 -481 261
-685 35 -77 193 -393 203 -405 4 -5 24 -41 45 -80 21 -38 43 -77 50 -85 6 -8
24 -37 40 -65 55 -97 298 -453 349 -512 15 -17 24 -28 81 -103 28 -36 55 -69
61 -75 6 -5 53 -59 105 -120 185 -217 535 -554 743 -715 10 -8 33 -27 50 -41
172 -142 528 -380 781 -521 89 -50 379 -197 460 -233 100 -45 143 -63 255
-108 206 -81 608 -214 710 -233 14 -3 52 -12 85 -21 33 -8 71 -17 85 -20 14
-2 50 -10 80 -18 30 -7 69 -16 85 -18 17 -3 82 -14 145 -26 144 -25 158 -27
307 -46 124 -16 155 -19 348 -32 209 -15 814 -8 935 11 14 2 54 7 90 11 88 9
132 14 218 26 71 10 87 13 142 23 14 2 43 7 65 11 22 4 114 22 205 41 149 32
235 53 400 100 101 28 395 126 422 140 15 8 30 14 33 13 7 -1 29 7 186 72 159
66 512 232 529 249 3 3 27 16 53 30 69 36 121 65 232 133 59 36 301 192 305
197 3 3 43 33 90 65 47 32 87 62 90 65 3 3 21 17 40 30 19 14 44 32 55 42 11
9 54 44 95 78 184 150 271 230 455 415 143 143 230 235 290 307 262 313 446
569 632 883 6 11 19 34 27 50 9 17 28 50 42 75 70 121 253 497 260 533 2 11 7
24 12 31 5 6 35 76 65 156 101 265 197 572 242 780 2 8 8 36 14 63 6 26 14 64
17 85 3 20 7 39 9 42 4 6 41 216 50 280 3 25 8 56 10 70 11 77 15 110 20 160
3 30 8 73 10 95 14 138 20 305 20 560 -1 314 -12 521 -40 705 -2 14 -6 48 -10
75 -3 28 -10 75 -15 105 -5 30 -12 73 -15 95 -5 32 -25 137 -50 255 -43 207
-168 635 -224 770 -5 14 -26 68 -46 120 -93 241 -311 693 -386 802 -11 14 -19
28 -19 31 0 17 -262 418 -286 438 -8 6 -14 16 -14 21 0 8 -23 38 -154 208 -72
91 -105 131 -239 285 -122 139 -446 455 -577 563 -22 18 -58 47 -141 117 -13
11 -51 40 -84 64 -33 24 -62 47 -65 51 -19 27 -489 336 -615 404 -27 15 -66
37 -85 48 -101 60 -418 213 -570 275 -47 19 -98 41 -115 48 -70 30 -272 102
-405 144 -145 46 -267 80 -375 105 -33 8 -67 16 -75 19 -8 4 -28 8 -45 11 -16
2 -52 9 -80 16 -60 14 -84 19 -235 44 -47 8 -105 18 -130 21 -25 3 -52 8 -60
10 -8 2 -44 7 -79 10 -35 3 -78 8 -95 10 -17 3 -65 7 -106 11 -41 3 -91 8
-110 10 -43 5 -706 14 -711 10z"/>
</g>
</svg>
